<svg width="224" height="136" viewBox="0 0 224 136" fill="none" xmlns="http://www.w3.org/2000/svg">
<path d="M23.3195 64.5V68H3.41953V64.5L18.1695 46.7H4.06953V43.2H22.5695V46.7L7.71953 64.5H23.3195ZM29.207 56.25C29.2737 57.55 29.507 58.7667 29.907 59.9C30.3404 61 30.9237 61.9667 31.657 62.8C32.3904 63.6 33.257 64.2333 34.257 64.7C35.2904 65.1667 36.457 65.4 37.757 65.4C38.8904 65.4 39.8737 65.2667 40.707 65C41.5737 64.7 42.3404 64.3 43.007 63.8C43.6737 63.2667 44.257 62.6667 44.757 62C45.257 61.3 45.707 60.55 46.107 59.75L48.957 61.45C47.7904 63.7167 46.307 65.5 44.507 66.8C42.707 68.0667 40.407 68.7 37.607 68.7C35.907 68.7 34.307 68.3833 32.807 67.75C31.3404 67.0833 30.0404 66.1833 28.907 65.05C27.807 63.8833 26.9237 62.5 26.257 60.9C25.6237 59.2667 25.307 57.5 25.307 55.6C25.307 53.7 25.6237 51.95 26.257 50.35C26.9237 48.7167 27.807 47.3333 28.907 46.2C30.0404 45.0333 31.357 44.1333 32.857 43.5C34.3904 42.8333 36.0237 42.5 37.757 42.5C39.6237 42.5 41.2904 42.8167 42.757 43.45C44.257 44.05 45.507 44.9 46.507 46C47.5404 47.1 48.3237 48.4167 48.857 49.95C49.4237 51.45 49.707 53.1 49.707 54.9V56.25H29.207ZM37.757 45.8C35.5237 45.8 33.707 46.4833 32.307 47.85C30.907 49.1833 29.9737 50.9167 29.507 53.05H45.807C45.7404 51.8833 45.457 50.85 44.957 49.95C44.4904 49.05 43.8737 48.3 43.107 47.7C42.3737 47.0667 41.5237 46.6 40.557 46.3C39.6237 45.9667 38.6904 45.8 37.757 45.8ZM56.2227 56.25C56.2893 57.55 56.5227 58.7667 56.9227 59.9C57.356 61 57.9393 61.9667 58.6727 62.8C59.406 63.6 60.2727 64.2333 61.2727 64.7C62.306 65.1667 63.4727 65.4 64.7727 65.4C65.906 65.4 66.8893 65.2667 67.7227 65C68.5893 64.7 69.356 64.3 70.0227 63.8C70.6893 63.2667 71.2727 62.6667 71.7727 62C72.2727 61.3 72.7227 60.55 73.1227 59.75L75.9727 61.45C74.806 63.7167 73.3227 65.5 71.5227 66.8C69.7227 68.0667 67.4227 68.7 64.6227 68.7C62.9227 68.7 61.3227 68.3833 59.8227 67.75C58.356 67.0833 57.056 66.1833 55.9227 65.05C54.8227 63.8833 53.9393 62.5 53.2727 60.9C52.6393 59.2667 52.3227 57.5 52.3227 55.6C52.3227 53.7 52.6393 51.95 53.2727 50.35C53.9393 48.7167 54.8227 47.3333 55.9227 46.2C57.056 45.0333 58.3727 44.1333 59.8727 43.5C61.406 42.8333 63.0393 42.5 64.7727 42.5C66.6393 42.5 68.306 42.8167 69.7727 43.45C71.2727 44.05 72.5227 44.9 73.5227 46C74.556 47.1 75.3393 48.4167 75.8727 49.95C76.4393 51.45 76.7227 53.1 76.7227 54.9V56.25H56.2227ZM64.7727 45.8C62.5393 45.8 60.7227 46.4833 59.3227 47.85C57.9227 49.1833 56.9893 50.9167 56.5227 53.05H72.8227C72.756 51.8833 72.4727 50.85 71.9727 49.95C71.506 49.05 70.8893 48.3 70.1227 47.7C69.3893 47.0667 68.5393 46.6 67.5727 46.3C66.6393 45.9667 65.706 45.8 64.7727 45.8ZM102.184 68H98.2836V51.85C98.2836 49.8833 97.7336 48.4167 96.6336 47.45C95.5336 46.4833 94.1003 46 92.3336 46C91.3669 46 90.4503 46.2 89.5836 46.6C88.7169 46.9667 87.9503 47.5167 87.2836 48.25C86.6503 48.95 86.1336 49.8167 85.7336 50.85C85.3336 51.85 85.1336 52.9833 85.1336 54.25V68H81.2336V43.2H85.1336V47.55C86.0003 45.9833 87.1503 44.75 88.5836 43.85C90.0503 42.95 91.6836 42.5 93.4836 42.5C94.5836 42.5 95.6503 42.6667 96.6836 43C97.7503 43.3333 98.6836 43.85 99.4836 44.55C100.284 45.25 100.934 46.15 101.434 47.25C101.934 48.3167 102.184 49.6167 102.184 51.15V68ZM108.298 43.2H112.198V68H108.298V43.2ZM107.898 34H112.598V38.9H107.898V34ZM134.982 68C134.615 67.5333 134.265 66.95 133.932 66.25C133.632 65.55 133.482 64.5 133.482 63.1C132.715 64.9 131.582 66.2833 130.082 67.25C128.615 68.2167 126.932 68.7 125.032 68.7C123.765 68.7 122.615 68.5 121.582 68.1C120.549 67.7333 119.665 67.2167 118.932 66.55C118.232 65.8833 117.682 65.1 117.282 64.2C116.882 63.2667 116.682 62.25 116.682 61.15C116.682 59.95 116.899 58.9 117.332 58C117.799 57.0667 118.415 56.2667 119.182 55.6C119.949 54.9333 120.849 54.4 121.882 54C122.915 53.5667 124.032 53.25 125.232 53.05L133.482 51.7V50.6C133.482 48.9 132.965 47.6833 131.932 46.95C130.899 46.1833 129.465 45.8 127.632 45.8C125.665 45.8 124.199 46.1833 123.232 46.95C122.265 47.7167 121.782 48.6167 121.782 49.65C121.782 49.7833 121.782 49.9 121.782 50C121.782 50.0667 121.815 50.2 121.882 50.4L118.482 51.55C118.215 50.9167 118.082 50.25 118.082 49.55C118.082 48.6167 118.299 47.7333 118.732 46.9C119.165 46.0333 119.799 45.2833 120.632 44.65C121.465 43.9833 122.465 43.4667 123.632 43.1C124.832 42.7 126.165 42.5 127.632 42.5C130.899 42.5 133.332 43.2167 134.932 44.65C136.565 46.0833 137.382 48.0667 137.382 50.6V61.8C137.382 62.5 137.399 63.1333 137.432 63.7C137.499 64.2333 137.582 64.75 137.682 65.25C137.782 65.7167 137.932 66.1667 138.132 66.6C138.332 67.0333 138.582 67.5 138.882 68H134.982ZM125.482 65.2C126.782 65.2 127.932 64.9333 128.932 64.4C129.932 63.8667 130.765 63.15 131.432 62.25C132.132 61.35 132.649 60.3333 132.982 59.2C133.315 58.0333 133.482 56.8167 133.482 55.55V54.8L125.932 56.1C124.199 56.4 122.882 56.9667 121.982 57.8C121.115 58.6333 120.682 59.6833 120.682 60.95C120.682 62.25 121.099 63.2833 121.932 64.05C122.799 64.8167 123.982 65.2 125.482 65.2Z" fill="white"/>
<path d="M139.324 89.5L148.774 80.2H153.424L144.874 88.65L155.124 105H150.674L142.174 91.4L139.324 94.25V105H135.424V70H139.324V89.5ZM174.462 105C174.095 104.533 173.745 103.95 173.412 103.25C173.112 102.55 172.962 101.5 172.962 100.1C172.195 101.9 171.062 103.283 169.562 104.25C168.095 105.217 166.412 105.7 164.512 105.7C163.245 105.7 162.095 105.5 161.062 105.1C160.028 104.733 159.145 104.217 158.412 103.55C157.712 102.883 157.162 102.1 156.762 101.2C156.362 100.267 156.162 99.25 156.162 98.15C156.162 96.95 156.378 95.9 156.812 95C157.278 94.0667 157.895 93.2667 158.662 92.6C159.428 91.9333 160.328 91.4 161.362 91C162.395 90.5667 163.512 90.25 164.712 90.05L172.962 88.7V87.6C172.962 85.9 172.445 84.6833 171.412 83.95C170.378 83.1833 168.945 82.8 167.112 82.8C165.145 82.8 163.678 83.1833 162.712 83.95C161.745 84.7167 161.262 85.6167 161.262 86.65C161.262 86.7833 161.262 86.9 161.262 87C161.262 87.0667 161.295 87.2 161.362 87.4L157.962 88.55C157.695 87.9167 157.562 87.25 157.562 86.55C157.562 85.6167 157.778 84.7333 158.212 83.9C158.645 83.0333 159.278 82.2833 160.112 81.65C160.945 80.9833 161.945 80.4667 163.112 80.1C164.312 79.7 165.645 79.5 167.112 79.5C170.378 79.5 172.812 80.2167 174.412 81.65C176.045 83.0833 176.862 85.0667 176.862 87.6V98.8C176.862 99.5 176.878 100.133 176.912 100.7C176.978 101.233 177.062 101.75 177.162 102.25C177.262 102.717 177.412 103.167 177.612 103.6C177.812 104.033 178.062 104.5 178.362 105H174.462ZM164.962 102.2C166.262 102.2 167.412 101.933 168.412 101.4C169.412 100.867 170.245 100.15 170.912 99.25C171.612 98.35 172.128 97.3333 172.462 96.2C172.795 95.0333 172.962 93.8167 172.962 92.55V91.8L165.412 93.1C163.678 93.4 162.362 93.9667 161.462 94.8C160.595 95.6333 160.162 96.6833 160.162 97.95C160.162 99.25 160.578 100.283 161.412 101.05C162.278 101.817 163.462 102.2 164.962 102.2ZM182.473 80.2H186.373V96.35C186.373 98.3167 186.923 99.7833 188.023 100.75C189.123 101.717 190.523 102.2 192.223 102.2C193.19 102.2 194.106 102.017 194.973 101.65C195.873 101.25 196.656 100.7 197.323 100C197.99 99.3 198.523 98.45 198.923 97.45C199.323 96.45 199.523 95.3333 199.523 94.1V80.2H203.423V105H199.523V100.65C198.69 102.25 197.556 103.5 196.123 104.4C194.723 105.267 193.106 105.7 191.273 105.7C190.14 105.7 189.04 105.533 187.973 105.2C186.94 104.867 186.006 104.333 185.173 103.6C184.373 102.867 183.723 101.933 183.223 100.8C182.723 99.6333 182.473 98.2167 182.473 96.55V80.2ZM221.443 83.4C220.843 83.2 220.193 83.1 219.493 83.1C218.626 83.1 217.81 83.3 217.043 83.7C216.31 84.1 215.643 84.6667 215.043 85.4C214.476 86.1 214.026 86.9667 213.693 88C213.36 89.0333 213.193 90.1833 213.193 91.45V105H209.293V80.2H213.193V84.7C213.86 83.2 214.776 81.9667 215.943 81C217.143 80 218.626 79.5 220.393 79.5C220.593 79.5 220.86 79.5333 221.193 79.6C221.526 79.6333 221.826 79.6833 222.093 79.75L221.443 83.4Z" fill="white"/>
</svg>
